<svg width="22" height="22" viewBox="0 0 22 22" fill="none" xmlns="http://www.w3.org/2000/svg">
<g id="Group 1171276832">
<path id="Vector" d="M16.1186 12.5356C16.39 12.5356 16.6503 12.4278 16.8422 12.2359C17.0341 12.044 17.1419 11.7837 17.1419 11.5123C17.1419 11.2409 17.0341 10.9806 16.8422 10.7887C16.6503 10.5968 16.39 10.489 16.1186 10.489C15.8472 10.489 15.587 10.5968 15.3951 10.7887C15.2031 10.9806 15.0953 11.2409 15.0953 11.5123C15.0953 11.7837 15.2031 12.044 15.3951 12.2359C15.587 12.4278 15.8472 12.5356 16.1186 12.5356ZM16.1186 16.6288C16.39 16.6288 16.6503 16.521 16.8422 16.3291C17.0341 16.1372 17.1419 15.8769 17.1419 15.6055C17.1419 15.3341 17.0341 15.0739 16.8422 14.8819C16.6503 14.69 16.39 14.5822 16.1186 14.5822C15.8472 14.5822 15.587 14.69 15.3951 14.8819C15.2031 15.0739 15.0953 15.3341 15.0953 15.6055C15.0953 15.8769 15.2031 16.1372 15.3951 16.3291C15.587 16.521 15.8472 16.6288 16.1186 16.6288ZM12.0254 11.5123C12.0254 11.7837 11.9176 12.044 11.7257 12.2359C11.5338 12.4278 11.2735 12.5356 11.0021 12.5356C10.7307 12.5356 10.4704 12.4278 10.2785 12.2359C10.0866 12.044 9.97882 11.7837 9.97882 11.5123C9.97882 11.2409 10.0866 10.9806 10.2785 10.7887C10.4704 10.5968 10.7307 10.489 11.0021 10.489C11.2735 10.489 11.5338 10.5968 11.7257 10.7887C11.9176 10.9806 12.0254 11.2409 12.0254 11.5123ZM12.0254 15.6055C12.0254 15.8769 11.9176 16.1372 11.7257 16.3291C11.5338 16.521 11.2735 16.6288 11.0021 16.6288C10.7307 16.6288 10.4704 16.521 10.2785 16.3291C10.0866 16.1372 9.97882 15.8769 9.97882 15.6055C9.97882 15.3341 10.0866 15.0739 10.2785 14.8819C10.4704 14.69 10.7307 14.5822 11.0021 14.5822C11.2735 14.5822 11.5338 14.69 11.7257 14.8819C11.9176 15.0739 12.0254 15.3341 12.0254 15.6055ZM5.88561 12.5356C6.15701 12.5356 6.41729 12.4278 6.60919 12.2359C6.8011 12.044 6.90891 11.7837 6.90891 11.5123C6.90891 11.2409 6.8011 10.9806 6.60919 10.7887C6.41729 10.5968 6.15701 10.489 5.88561 10.489C5.61421 10.489 5.35393 10.5968 5.16202 10.7887C4.97012 10.9806 4.8623 11.2409 4.8623 11.5123C4.8623 11.7837 4.97012 12.044 5.16202 12.2359C5.35393 12.4278 5.61421 12.5356 5.88561 12.5356ZM5.88561 16.6288C6.15701 16.6288 6.41729 16.521 6.60919 16.3291C6.8011 16.1372 6.90891 15.8769 6.90891 15.6055C6.90891 15.3341 6.8011 15.0739 6.60919 14.8819C6.41729 14.69 6.15701 14.5822 5.88561 14.5822C5.61421 14.5822 5.35393 14.69 5.16202 14.8819C4.97012 15.0739 4.8623 15.3341 4.8623 15.6055C4.8623 15.8769 4.97012 16.1372 5.16202 16.3291C5.35393 16.521 5.61421 16.6288 5.88561 16.6288Z" fill="#7E57C2"/>
<path id="Vector_2" fill-rule="evenodd" clip-rule="evenodd" d="M5.88297 0C6.08652 0 6.28173 0.080859 6.42566 0.224789C6.56959 0.368719 6.65045 0.56393 6.65045 0.767478V1.54826C7.32788 1.53496 8.07386 1.53496 8.89455 1.53496H13.1034C13.9251 1.53496 14.6711 1.53496 15.3485 1.54826V0.767478C15.3485 0.56393 15.4294 0.368719 15.5733 0.224789C15.7172 0.080859 15.9125 0 16.116 0C16.3196 0 16.5148 0.080859 16.6587 0.224789C16.8026 0.368719 16.8835 0.56393 16.8835 0.767478V1.61375C17.1495 1.63422 17.4013 1.6598 17.6397 1.69152C18.839 1.8532 19.8101 2.19294 20.5766 2.95837C21.342 3.72482 21.6818 4.69594 21.8434 5.89525C22 7.06182 22 8.55072 22 10.4316V12.5928C22 14.4736 22 15.9635 21.8434 17.1291C21.6818 18.3284 21.342 19.2995 20.5766 20.066C19.8101 20.8314 18.839 21.1711 17.6397 21.3328C16.4731 21.4894 14.9842 21.4894 13.1034 21.4894H8.8966C7.01577 21.4894 5.52584 21.4894 4.3603 21.3328C3.16098 21.1711 2.18987 20.8314 1.42341 20.066C0.657984 19.2995 0.318247 18.3284 0.156565 17.1291C0 15.9625 0 14.4736 0 12.5928V10.4316C0 8.55072 0 7.06079 0.156565 5.89525C0.318247 4.69594 0.657984 3.72482 1.42341 2.95837C2.18987 2.19294 3.16098 1.8532 4.3603 1.69152C4.59873 1.6598 4.85148 1.63422 5.11652 1.61375V0.767478C5.11652 0.564107 5.19724 0.369051 5.34094 0.22515C5.48465 0.0812499 5.6796 0.000271161 5.88297 0ZM4.56291 3.21317C3.53449 3.35132 2.94097 3.61124 2.50812 4.0441C2.07526 4.47695 1.81534 5.07047 1.67719 6.09991C1.65366 6.27387 1.63422 6.45807 1.61784 6.65147H20.3811C20.3648 6.45704 20.3453 6.27387 20.3218 6.09889C20.1836 5.07047 19.9237 4.47695 19.4909 4.0441C19.058 3.61124 18.4645 3.35132 17.435 3.21317C16.3841 3.07196 14.9975 3.06991 13.0461 3.06991H8.95288C7.00144 3.06991 5.61589 3.07196 4.56291 3.21317ZM1.53393 10.4889C1.53393 9.61496 1.53393 8.85464 1.54723 8.18643H20.4517C20.465 8.85464 20.465 9.61496 20.465 10.4889V12.5355C20.465 14.4869 20.463 15.8735 20.3218 16.9254C20.1836 17.9539 19.9237 18.5474 19.4909 18.9802C19.058 19.4131 18.4645 19.673 17.435 19.8112C16.3841 19.9524 14.9975 19.9544 13.0461 19.9544H8.95288C7.00144 19.9544 5.61589 19.9524 4.56291 19.8112C3.53449 19.673 2.94097 19.4131 2.50812 18.9802C2.07526 18.5474 1.81534 17.9539 1.67719 16.9244C1.53598 15.8735 1.53393 14.4869 1.53393 12.5355V10.4889Z" fill="#7E57C2"/>
</g>
</svg>
