<svg width="25" height="25" viewBox="0 0 25 25" fill="none" xmlns="http://www.w3.org/2000/svg">
<g id="Group 1171275814">
<path id="Vector" fill-rule="evenodd" clip-rule="evenodd" d="M12.5 4.86208e-08C11.1039 -0.00016174 9.73748 0.40345 8.56552 1.16219C7.39355 1.92093 6.46603 3.00242 5.89474 4.27632C5.8149 4.45693 5.73332 4.63676 5.65 4.81579C5.62193 4.87457 5.59209 4.93249 5.56053 4.98947C5.51679 5.06075 5.46011 5.12323 5.39342 5.17368C5.31989 5.21358 5.23957 5.23946 5.15658 5.25C5.10921 5.25921 5.01184 5.26316 4.60526 5.26316C3.38387 5.26316 2.2125 5.74835 1.34885 6.61201C0.485196 7.47566 0 8.64703 0 9.86842C0 11.0898 0.485196 12.2612 1.34885 13.1248C2.2125 13.9885 3.38387 14.4737 4.60526 14.4737H5.48947L6.80526 13.1579H4.60526C3.73284 13.1579 2.89615 12.8113 2.27925 12.1944C1.66236 11.5775 1.31579 10.7408 1.31579 9.86842C1.31579 8.996 1.66236 8.15931 2.27925 7.54241C2.89615 6.92552 3.73284 6.57895 4.60526 6.57895H4.67632C4.97368 6.57895 5.21974 6.57895 5.41579 6.53947C5.65263 6.49211 5.88684 6.42105 6.10789 6.27632C6.32895 6.13421 6.48947 5.95 6.63158 5.75263C6.70789 5.64737 6.77632 5.51053 6.83816 5.38026C6.90395 5.24079 6.98684 5.05526 7.0921 4.82237L7.09474 4.81579C7.56176 3.77276 8.32059 2.88713 9.27968 2.26572C10.2388 1.64431 11.3572 1.31366 12.5 1.31366C13.6428 1.31366 14.7612 1.64431 15.7203 2.26572C16.6794 2.88713 17.4382 3.77276 17.9053 4.81579L17.9079 4.82368C18.0132 5.05526 18.0961 5.24079 18.1618 5.38026C18.2237 5.51053 18.2921 5.64605 18.3684 5.75263C18.5092 5.95 18.6711 6.13421 18.8921 6.27763C19.1132 6.42105 19.3474 6.49211 19.5842 6.54079C19.7803 6.58026 20.0263 6.58026 20.3237 6.57895H20.3947C21.2672 6.57895 22.1038 6.92552 22.7207 7.54241C23.3376 8.15931 23.6842 8.996 23.6842 9.86842C23.6842 10.7408 23.3376 11.5775 22.7207 12.1944C22.1038 12.8113 21.2672 13.1579 20.3947 13.1579H18.1947L19.5105 14.4737H20.3947C20.9995 14.4737 21.5984 14.3546 22.1571 14.1231C22.7158 13.8917 23.2235 13.5525 23.6511 13.1248C24.0788 12.6972 24.418 12.1895 24.6494 11.6308C24.8809 11.072 25 10.4732 25 9.86842C25 9.26365 24.8809 8.6648 24.6494 8.10606C24.418 7.54733 24.0788 7.03965 23.6511 6.61201C23.2235 6.18437 22.7158 5.84515 22.1571 5.61371C21.5984 5.38228 20.9995 5.26316 20.3947 5.26316C19.9882 5.26316 19.8908 5.25921 19.8447 5.25C19.7617 5.23905 19.6813 5.21272 19.6079 5.17237C19.5407 5.12204 19.4836 5.05955 19.4395 4.98816L19.4184 4.95263C19.3945 4.90713 19.3717 4.86106 19.35 4.81447C19.2667 4.63588 19.1851 4.45648 19.1053 4.27632C18.534 3.00242 17.6064 1.92093 16.4345 1.16219C15.2625 0.40345 13.8961 -0.00016174 12.5 4.86208e-08Z" fill="#7E57C2"/>
<path id="Vector_2" d="M12.4965 12.5001L12.0307 12.0343L12.4965 11.5698L12.9623 12.0343L12.4965 12.5001ZM13.1544 24.3422C13.1544 24.5167 13.0851 24.684 12.9617 24.8074C12.8383 24.9308 12.671 25.0001 12.4965 25.0001C12.322 25.0001 12.1547 24.9308 12.0313 24.8074C11.9079 24.684 11.8386 24.5167 11.8386 24.3422H13.1544ZM6.76758 17.2975L12.0307 12.0343L12.9623 12.9659L7.69916 18.229L6.76758 17.2975ZM12.9623 12.0343L18.2255 17.2975L17.2939 18.229L12.0307 12.9659L12.9623 12.0343ZM13.1544 12.5001V24.3422H11.8386V12.5001H13.1544Z" fill="#7E57C2"/>
</g>
</svg>
